Coordinates
version=1
nRows=14
nColumns=40
inDegrees=yes

Units are S.I. units (second, meters, Newtons, ...)
If the header above contains a line with 'inDegrees', this indicates whether rotational values are in degrees (yes) or radians (no).

endheader
time	pelvis_tilt	pelvis_list	pelvis_rotation	pelvis_tx	pelvis_ty	pelvis_tz	hip_flexion_r	hip_adduction_r	hip_rotation_r	knee_angle_r	knee_angle_r_beta	ankle_angle_r	subtalar_angle_r	mtp_angle_r	hip_flexion_l	hip_adduction_l	hip_rotation_l	knee_angle_l	knee_angle_l_beta	ankle_angle_l	subtalar_angle_l	mtp_angle_l	lumbar_extension	lumbar_bending	lumbar_rotation	arm_flex_r	arm_add_r	arm_rot_r	elbow_flex_r	pro_sup_r	wrist_flex_r	wrist_dev_r	arm_flex_l	arm_add_l	arm_rot_l	elbow_flex_l	pro_sup_l	wrist_flex_l	wrist_dev_l
      5.02500000	    -33.31072750	      5.50621732	     -0.99382431	     -0.33487160	      0.83486851	     -1.02295076	     42.48443928	      3.02043653	    -14.38808119	    110.54298687	      1.92933909	    -24.46790715	      0.00000000	      0.00000000	     79.25189407	      5.93548454	     -6.24756829	     71.86703817	      1.25431644	     26.27417547	      0.00000000	      0.00000000	      3.61979252	     -9.64316970	      1.27947705	     89.95499898	    -10.53036792	     15.70400658	     46.29056841	     85.69494572	      0.00000000	      0.00000000	     89.95888052	    -19.28927057	     14.89909970	     49.50724227	     85.42696877	      0.00000000	      0.00000000
      5.03000000	    -33.22882876	      5.48625432	     -1.10153625	     -0.33487111	      0.83672291	     -1.02287339	     42.40949427	      3.16230090	    -14.34566164	    110.46275520	      1.92793878	    -24.38110622	      0.00000000	      0.00000000	     78.95843463	      5.88605045	     -6.17896871	     71.48705653	      1.24768451	     26.10361837	      0.00000000	      0.00000000	      3.57785314	     -9.56199581	      1.39919635	     89.95479094	    -10.51624006	     15.81807465	     46.22322930	     85.70172214	      0.00000000	      0.00000000	     89.95859286	    -19.33547459	     14.95105432	     49.42653451	     85.43102905	      0.00000000	      0.00000000
      5.03500000	    -33.12283749	      5.51729589	     -1.23426866	     -0.33486837	      0.83846797	     -1.02286653	     42.30144700	      3.20303682	    -14.39691639	    110.38054131	      1.92650388	    -24.31634226	      0.00000000	      0.00000000	     78.64642745	      5.82503037	     -6.17784251	     71.13734961	      1.24158097	     25.88984823	      0.00000000	      0.00000000	      3.52083346	     -9.53135286	      1.52006311	     89.95466723	    -10.49552347	     15.92887091	     46.18000719	     85.70878271	      0.00000000	      0.00000000	     89.95833197	    -19.39628038	     14.98656481	     49.34920120	     85.43254081	      0.00000000	      0.00000000
      5.04000000	    -33.11445654	      5.40737676	     -1.23111096	     -0.33526363	      0.84012428	     -1.02289828	     42.34436023	      3.33977652	    -14.54906023	    110.33596118	      1.92572581	    -24.27292780	      0.00000000	      0.00000000	     78.48492183	      5.77185816	     -6.13369170	     70.84409456	      1.23646271	     25.79047668	      0.00000000	      0.00000000	      3.51955800	     -9.38159022	      1.53051046	     89.95453054	    -10.52538209	     15.98622749	     46.16777033	     85.70854366	      0.00000000	      0.00000000	     89.95825990	    -19.40995796	     15.02154482	     49.31232179	     85.43471852	      0.00000000	      0.00000000
      5.04500000	    -33.08505323	      5.33982741	     -1.27477253	     -0.33552430	      0.84185683	     -1.02301006	     42.32512082	      3.45492798	    -14.60964993	    110.25665711	      1.92434169	    -24.23807395	      0.00000000	      0.00000000	     78.27180882	      5.77852091	     -5.98112816	     70.50428568	      1.23053192	     25.64784263	      0.00000000	      0.00000000	      3.50963302	     -9.24431550	      1.58428190	     89.95438037	    -10.52189580	     16.09297591	     46.11525450	     85.71327963	      0.00000000	      0.00000000	     89.95798833	    -19.43902425	     15.06393702	     49.23447444	     85.43685458	      0.00000000	      0.00000000
      5.05000000	    -32.64251568	      5.79987192	     -1.65857505	     -0.33432396	      0.84427850	     -1.02274405	     41.74319529	      3.21826545	    -14.12115876	    110.19405808	      1.92324913	    -24.13021734	      0.00000000	      0.00000000	     77.47087953	      5.66605264	     -6.51391585	     70.10190304	      1.22350902	     25.64940297	      0.00000000	      0.00000000	      3.18550771	     -9.67731112	      1.94027597	     89.95404527	    -10.50622708	     16.31919017	     46.02227285	     85.71560457	      0.00000000	      0.00000000	     89.95780332	    -19.54079990	     15.25797309	     49.07533961	     85.45133543	      0.00000000	      0.00000000
      5.05500000	    -32.61587227	      5.74696267	     -1.76275175	     -0.33454267	      0.84604432	     -1.02268830	     41.75075379	      3.32510030	    -14.25048157	    110.11533328	      1.92187512	    -24.05910354	      0.00000000	      0.00000000	     77.25705401	      5.57393789	     -6.46842970	     69.76656660	      1.21765630	     25.55388196	      0.00000000	      0.00000000	      3.18509560	     -9.56079097	      2.05279500	     89.95385678	    -10.49048818	     16.36600239	     45.99638132	     85.71584467	      0.00000000	      0.00000000	     89.95750359	    -19.58968666	     15.25275401	     49.06249604	     85.44771377	      0.00000000	      0.00000000
      5.06000000	    -32.55372532	      5.74943110	     -1.86463845	     -0.33462325	      0.84782174	     -1.02260351	     41.68710399	      3.45716813	    -14.20420306	    110.06630437	      1.92101941	    -24.05550887	      0.00000000	      0.00000000	     76.98168609	      5.55485714	     -6.38681279	     69.37283357	      1.21078436	     25.33345824	      0.00000000	      0.00000000	      3.16977396	     -9.51400429	      2.17911041	     89.95384705	    -10.46408848	     16.44602059	     45.96934663	     85.72052705	      0.00000000	      0.00000000	     89.95727333	    -19.61521666	     15.29822783	     48.99423154	     85.45077225	      0.00000000	      0.00000000
      5.06500000	    -32.50859100	      5.67903585	     -1.94322368	     -0.33481310	      0.84973105	     -1.02257034	     41.64719483	      3.55122556	    -14.30035627	    110.01115203	      1.92005682	    -24.01882234	      0.00000000	      0.00000000	     76.74176808	      5.46585701	     -6.34613822	     69.02694122	      1.20474740	     25.17097797	      0.00000000	      0.00000000	      3.14545773	     -9.38671163	      2.27061579	     89.95344506	    -10.49474152	     16.52415726	     45.87767950	     85.72402914	      0.00000000	      0.00000000	     89.95701587	    -19.66337315	     15.33536778	     48.93934991	     85.45246639	      0.00000000	      0.00000000
      5.07000000	    -32.48676246	      5.60746627	     -1.99264255	     -0.33498545	      0.85145247	     -1.02264507	     41.61862753	      3.67812922	    -14.39172901	    109.93507773	      1.91872907	    -23.97401500	      0.00000000	      0.00000000	     76.52829111	      5.44329294	     -6.23783262	     68.66788843	      1.19848074	     24.98906432	      0.00000000	      0.00000000	      3.16221898	     -9.25412143	      2.33559940	     89.95348783	    -10.48455026	     16.61784512	     45.86525727	     85.72986698	      0.00000000	      0.00000000	     89.95681503	    -19.67555131	     15.40614658	     48.84847991	     85.45860466	      0.00000000	      0.00000000
      5.07500000	    -32.30050035	      5.65576596	     -2.13052098	     -0.33474771	      0.85366194	     -1.02253766	     41.38121895	      3.75671001	    -14.34955079	    109.81568579	      1.91664529	    -23.95991902	      0.00000000	      0.00000000	     76.08516030	      5.43184584	     -6.21407865	     68.24526074	      1.19110450	     24.76430504	      0.00000000	      0.00000000	      3.02328818	     -9.25767014	      2.47515140	     89.95319315	    -10.48907442	     16.77205375	     45.77279142	     85.74200017	      0.00000000	      0.00000000	     89.95652143	    -19.72706685	     15.55079216	     48.70745794	     85.47147925	      0.00000000	      0.00000000
      5.08000000	    -32.27125889	      5.60603008	     -2.20433181	     -0.33491447	      0.85545810	     -1.02258568	     41.33776455	      3.79277301	    -14.46549438	    109.80101031	      1.91638915	    -23.90883300	      0.00000000	      0.00000000	     75.87883401	      5.34546590	     -6.20989410	     67.95827632	      1.18609568	     24.64467778	      0.00000000	      0.00000000	      3.01818432	     -9.12118665	      2.58176512	     89.95321329	    -10.49366679	     16.82175286	     45.77156980	     85.74300984	      0.00000000	      0.00000000	     89.95635163	    -19.79302663	     15.57854507	     48.65627373	     85.47257451	      0.00000000	      0.00000000
      5.08500000	    -32.18890307	      5.56972098	     -2.30159457	     -0.33501143	      0.85740851	     -1.02254917	     41.23987488	      3.92557668	    -14.52335895	    109.71110222	      1.91481996	    -23.91869138	      0.00000000	      0.00000000	     75.55929959	      5.30347810	     -6.14694780	     67.53950157	      1.17878668	     24.48534062	      0.00000000	      0.00000000	      2.97714190	     -9.02629557	      2.70226986	     89.95305847	    -10.50695985	     16.89906495	     45.73233677	     85.74253116	      0.00000000	      0.00000000	     89.95618697	    -19.81744769	     15.67745123	     48.55660293	     85.48074721	      0.00000000	      0.00000000
      5.09000000	    -32.13705318	      5.48843888	     -2.36570974	     -0.33509595	      0.85935549	     -1.02256833	     41.15089353	      4.05731572	    -14.64228775	    109.63650537	      1.91351800	    -23.86368737	      0.00000000	      0.00000000	     75.29656358	      5.26140277	     -6.03212015	     67.16658314	      1.17227802	     24.32482073	      0.00000000	      0.00000000	      2.95273772	     -8.88397360	      2.78524943	     89.95285539	    -10.50930839	     17.02229255	     45.64011903	     85.74956167	      0.00000000	      0.00000000	     89.95592386	    -19.82561815	     15.75998356	     48.44897615	     85.48659921	      0.00000000	      0.00000000
